<svg width="30" height="30" viewBox="0 0 30 30" fill="none" xmlns="http://www.w3.org/2000/svg">
<path d="M15.0131 7.35704C14.7493 7.35704 14.4884 7.3705 14.2313 7.39683C13.9742 7.42316 13.7207 7.46218 13.4715 7.51339C13.2222 7.56462 12.9775 7.62806 12.7376 7.70293L12.0335 7.96146L11.3631 8.28514L10.7305 8.67006L10.1395 9.11216L9.59406 9.6076L9.09814 10.1525L8.65556 10.7429L8.27017 11.3749L7.94629 12.0445C7.84894 12.2735 7.76233 12.5084 7.68737 12.748C7.61242 12.9877 7.54898 13.2324 7.49764 13.4814C7.44633 13.7303 7.40731 13.9835 7.38087 14.2404C7.35446 14.4973 7.34119 14.758 7.34119 15.0215C7.34119 15.285 7.35464 15.5456 7.38087 15.8025C7.40698 16.0574 7.44594 16.3108 7.49764 16.5617C7.54898 16.8116 7.61242 17.0553 7.68737 17.295C7.76233 17.5347 7.84883 17.7694 7.94629 17.9985L8.27017 18.6681L8.65556 19.3L9.09814 19.8905L9.59406 20.4355L10.1395 20.931L10.7305 21.373L11.3631 21.7578L12.0335 22.0816L12.7376 22.3401L13.4715 22.5297C13.7226 22.5814 13.9762 22.6203 14.2313 22.6464C14.4911 22.6728 14.752 22.6862 15.0131 22.686C15.2769 22.686 15.5379 22.6726 15.7949 22.6464C16.05 22.6203 16.3036 22.5814 16.5547 22.5297L17.2887 22.3401L17.9928 22.0816L18.663 21.7578L19.2957 21.373L19.8868 20.931L20.4323 20.4355L20.9283 19.8905L21.3708 19.3L21.7562 18.6681L22.0802 17.9985L22.3389 17.295C22.4139 17.0553 22.4775 16.8106 22.5287 16.5617L22.6454 15.8025C22.6718 15.5456 22.6852 15.2849 22.6852 15.0214C22.6852 14.7579 22.6718 14.4972 22.6454 14.2403C22.6193 13.9855 22.5804 13.7321 22.5287 13.4812C22.4775 13.2314 22.4139 12.9877 22.3389 12.7479L22.0802 12.0444L21.7562 11.3748L21.3708 10.7428L20.9283 10.1524L20.4323 9.6075L19.8868 9.11206L19.2957 8.66998L18.663 8.28506L17.9928 7.96137L17.2887 7.70283L16.5547 7.51331L15.7949 7.39673C15.5351 7.3702 15.2742 7.35702 15.0131 7.35704ZM15.0131 10.0025C15.1876 10.0025 15.3597 10.0112 15.5292 10.0283L16.029 10.1039L16.5117 10.2269L16.974 10.3948L17.4135 10.6053L17.8268 10.8557L18.2131 11.1437L18.5693 11.4668L18.8927 11.8226L19.1811 12.2086L19.4317 12.6224L19.6422 13.0616C19.7054 13.212 19.7615 13.366 19.8104 13.5235C19.8592 13.6811 19.9002 13.842 19.9334 14.006C19.9665 14.17 19.9911 14.3368 20.009 14.5062L20.0348 15.022C20.0348 15.1962 20.0261 15.3682 20.009 15.5378C19.9919 15.7073 19.9667 15.8741 19.9334 16.038C19.9 16.2019 19.8589 16.3629 19.8104 16.5205L19.6422 16.9824L19.4317 17.4216L19.1811 17.8353L18.8927 18.2214L18.5693 18.5772L18.2131 18.9003L17.8268 19.1884L17.4135 19.4387L16.974 19.6492L16.5117 19.8171L16.029 19.9401L15.5292 20.0156C15.3577 20.0328 15.1854 20.0414 15.013 20.0414C14.8406 20.0414 14.6683 20.0328 14.4967 20.0156L13.997 19.9401C13.8329 19.9069 13.6718 19.8657 13.5141 19.8171L13.0519 19.6492L12.6124 19.4387L12.1991 19.1884L11.8127 18.9003L11.4565 18.5772L11.1331 18.2214L10.8448 17.8353L10.5942 17.4216L10.3837 16.9824L10.2155 16.5205L10.0925 16.038L10.0169 15.5378C9.99964 15.3664 9.99104 15.1942 9.99108 15.022C9.99104 14.8497 9.99964 14.6776 10.0169 14.5062C10.0339 14.3368 10.0591 14.1699 10.0925 14.006C10.1255 13.8433 10.1666 13.6823 10.2156 13.5236L10.3838 13.0617L10.5943 12.6225L10.8449 12.2087L11.1332 11.8227L11.4566 11.4669L11.8128 11.1438L12.1992 10.8558L12.6124 10.6054L13.0519 10.3949C13.2032 10.3314 13.3575 10.2754 13.5143 10.227L13.9972 10.104C14.1612 10.0707 14.3283 10.0454 14.4969 10.0284C14.6685 10.0112 14.8407 10.0025 15.0131 10.0025Z" fill="white"/>
<path d="M22.9963 5.17676C22.9355 5.17676 22.8746 5.17984 22.814 5.18599C22.7534 5.19211 22.6932 5.20128 22.6334 5.21347C22.5738 5.22565 22.5146 5.24082 22.4565 5.25892C22.3982 5.27705 22.3411 5.29809 22.2849 5.32197C22.2288 5.34588 22.174 5.37261 22.1205 5.40203C22.0669 5.4314 22.0151 5.46345 21.9649 5.49805C21.9144 5.53267 21.8659 5.56982 21.8194 5.60934C21.7728 5.64882 21.7282 5.69061 21.6857 5.73457C21.6434 5.77855 21.6032 5.82465 21.5653 5.87267C21.5274 5.92072 21.4919 5.97061 21.459 6.02222C21.4261 6.07378 21.3959 6.12697 21.3682 6.18157C21.3407 6.23622 21.3157 6.29222 21.2936 6.34938C21.2715 6.40651 21.2524 6.46474 21.2359 6.5238C21.2196 6.58288 21.2063 6.64274 21.1961 6.70315C21.1857 6.76355 21.1784 6.82442 21.174 6.88557C21.1709 6.92886 21.1694 6.97228 21.1694 7.01569C21.1694 7.07703 21.1723 7.13832 21.1786 7.19936C21.1846 7.26036 21.1938 7.32101 21.2059 7.38109C21.218 7.44117 21.233 7.50061 21.2509 7.55917C21.269 7.61776 21.2899 7.6754 21.3136 7.73188C21.3374 7.78838 21.3638 7.84365 21.3932 7.89749C21.4223 7.9513 21.4542 8.00361 21.4886 8.05424C21.523 8.10482 21.5599 8.15363 21.599 8.20051C21.6384 8.24742 21.6799 8.29234 21.7236 8.33507C21.7674 8.37778 21.813 8.41826 21.8609 8.45636C21.9086 8.49449 21.9582 8.53017 22.0094 8.56332C22.0607 8.59647 22.1136 8.62701 22.1678 8.65482C22.2221 8.68265 22.2778 8.70774 22.3344 8.72997C22.3913 8.7522 22.449 8.77153 22.5078 8.78792C22.5665 8.8043 22.6259 8.81772 22.6859 8.82809C22.7459 8.83853 22.8065 8.84595 22.8671 8.8503C22.9103 8.85338 22.9534 8.8549 22.9965 8.85492C23.0574 8.85492 23.1184 8.85188 23.179 8.84578C23.2394 8.83965 23.2999 8.83049 23.3594 8.8183C23.4192 8.80613 23.4782 8.79094 23.5365 8.77284C23.5946 8.75472 23.6519 8.73367 23.708 8.7098C23.764 8.6859 23.819 8.65922 23.8724 8.62982C23.9259 8.60042 23.9778 8.56834 24.0282 8.53372C24.0784 8.49911 24.1269 8.46201 24.1736 8.42253C24.2201 8.38301 24.2646 8.3412 24.3071 8.2972C24.3496 8.25322 24.3899 8.20711 24.4276 8.15909C24.4655 8.11105 24.5009 8.06115 24.5338 8.00955C24.5667 7.95797 24.5971 7.90474 24.6246 7.85011C24.6524 7.79544 24.6774 7.73944 24.6994 7.6823C24.7215 7.62515 24.7407 7.56695 24.7569 7.50786C24.7732 7.4488 24.7865 7.38895 24.7969 7.32853C24.8074 7.26813 24.8146 7.20724 24.8188 7.14611C24.8219 7.1028 24.8236 7.0594 24.8236 7.01599C24.8236 6.95467 24.8205 6.8934 24.8144 6.8324C24.8084 6.7714 24.7992 6.71076 24.7871 6.65067C24.7751 6.59059 24.7599 6.53115 24.7419 6.47259C24.7238 6.41401 24.703 6.35636 24.6792 6.29988C24.6555 6.24338 24.629 6.18811 24.5999 6.13428C24.5707 6.08047 24.5388 6.02815 24.5044 5.97753C24.4699 5.9269 24.433 5.87807 24.3938 5.83115C24.3544 5.78426 24.313 5.73934 24.2694 5.69661C24.2257 5.6539 24.1799 5.61342 24.1321 5.57532C24.0844 5.53722 24.0349 5.50155 23.9836 5.46845C23.9324 5.4353 23.8794 5.40476 23.8251 5.37695C23.7707 5.34911 23.7151 5.32403 23.6584 5.3018C23.6017 5.27957 23.5438 5.26024 23.4851 5.24384C23.4265 5.22742 23.3669 5.21399 23.3069 5.20357C23.2469 5.19317 23.1865 5.18578 23.1257 5.18147C23.0826 5.17838 23.0394 5.17676 22.9963 5.17676Z" fill="white"/>
<path d="M13.5583 0.027135C12.7239 0.0257894 11.9793 0.029249 11.3104 0.0386675L9.51699 0.0867217C8.9857 0.109787 8.5163 0.139867 8.09497 0.178791C7.8843 0.198205 7.68555 0.219925 7.49718 0.243856C7.31791 0.26645 7.13916 0.292759 6.96099 0.322763C6.79134 0.351596 6.63036 0.382734 6.47601 0.416563C6.32168 0.450394 6.17424 0.486915 6.03199 0.526127C5.89295 0.564471 5.75497 0.606648 5.61826 0.652607C5.48428 0.697777 5.35357 0.74564 5.22449 0.796769C4.96634 0.899029 4.71455 1.01378 4.45524 1.14237C4.25572 1.24136 4.07139 1.3416 3.89628 1.44771C3.72118 1.55381 3.55528 1.66588 3.39287 1.78793C3.22559 1.91424 3.06436 2.04837 2.90974 2.18987C2.74807 2.3371 2.58297 2.49903 2.41141 2.68001C2.19584 2.90616 2.00852 3.11701 1.84225 3.32393C1.75912 3.42735 1.68127 3.52962 1.60794 3.63245C1.53542 3.73378 1.4661 3.83739 1.40006 3.94305C1.33471 4.04783 1.27281 4.15451 1.21361 4.26426C1.15349 4.37591 1.09666 4.4893 1.04321 4.60428C0.93384 4.83918 0.831773 5.09214 0.729898 5.37451C0.654321 5.58324 0.586644 5.79478 0.527013 6.00862C0.466177 6.22718 0.412069 6.45583 0.363821 6.7031C0.315575 6.95039 0.273479 7.21633 0.236477 7.51041C0.196605 7.83278 0.164751 8.1561 0.140946 8.48005C0.114036 8.83622 0.0917392 9.22816 0.0734786 9.66439L0.03023 11.1149L0.00697168 12.883L0.000244141 15.0201L0.0199463 18.128L0.0814557 20.4826L0.128837 21.4023L0.18804 22.1646C0.207018 22.37 0.230763 22.5748 0.259257 22.7792C0.285204 22.9606 0.313077 23.1194 0.343063 23.2569C0.403906 23.5363 0.475852 23.8131 0.558729 24.0869C0.638084 24.349 0.728832 24.6073 0.830715 24.8615C0.930861 25.1104 1.04042 25.3504 1.1596 25.5815C1.27877 25.8125 1.40756 26.0346 1.54595 26.2479C1.68435 26.4611 1.83236 26.6656 1.99036 26.8615C2.14818 27.0573 2.31605 27.2446 2.4933 27.4231C2.6708 27.6019 2.85803 27.7719 3.05534 27.9336C3.25497 28.0971 3.46251 28.2508 3.67716 28.394C3.87639 28.5271 4.07351 28.6492 4.27207 28.7611C4.47062 28.8731 4.67091 28.9746 4.87678 29.0671C5.08264 29.1594 5.2937 29.2425 5.51418 29.3173C5.73464 29.3921 5.96434 29.4586 6.20712 29.5175C6.44989 29.5767 6.70687 29.6283 6.97887 29.6736C7.25084 29.7188 7.54157 29.7575 7.8522 29.7908C8.16282 29.8242 8.4942 29.8517 8.85028 29.8748C9.20637 29.8979 9.58695 29.9163 9.99589 29.9311C10.6276 29.954 11.5839 29.9673 12.6866 29.9725L16.2566 29.9652L19.6371 29.9179L20.9225 29.8817L21.7598 29.8388C21.9396 29.824 22.1154 29.8067 22.2852 29.7865C22.455 29.7663 22.6223 29.7431 22.7854 29.7167C22.9483 29.6904 23.1077 29.6611 23.2642 29.6283C23.4189 29.5961 23.5729 29.56 23.7258 29.5204C23.8773 29.4819 24.0267 29.4381 24.1746 29.3917C24.3223 29.3454 24.4687 29.2952 24.6142 29.2413C24.7604 29.1871 24.9052 29.1294 25.0487 29.0683C25.1931 29.0067 25.3373 28.9411 25.4821 28.8713C25.7044 28.7642 25.8833 28.6748 26.0404 28.5877C26.1883 28.5067 26.3306 28.4161 26.4667 28.3163C26.6008 28.2175 26.7342 28.105 26.8879 27.9633C27.0417 27.8217 27.216 27.6511 27.4317 27.4352C27.6214 27.2456 27.7812 27.0808 27.9192 26.9311C28.0571 26.7813 28.1733 26.6465 28.2752 26.5165C28.3723 26.3931 28.4627 26.2648 28.5462 26.1319C28.6277 26.0021 28.7027 25.8673 28.779 25.7179C28.894 25.4931 28.9962 25.2848 29.0877 25.0838C29.1767 24.8902 29.2579 24.6929 29.3312 24.4929C29.4035 24.2944 29.4662 24.0925 29.5189 23.8879C29.5731 23.6775 29.6198 23.4552 29.6602 23.2115C29.7004 22.9677 29.7346 22.7025 29.7642 22.4063C29.7937 22.1102 29.8189 21.7827 29.841 21.415L29.8998 20.1803L29.95 18.6447L29.986 16.934L29.9998 15.1453L29.9677 11.632L29.9248 10.0584L29.8662 8.70735L29.7931 7.65399C29.7667 7.36087 29.7379 7.13001 29.7077 6.97393C29.674 6.80147 29.6364 6.62983 29.595 6.45908C29.5546 6.29295 29.5102 6.12783 29.4619 5.96385C29.4148 5.80408 29.3635 5.64553 29.3083 5.48839C29.2537 5.33318 29.1958 5.18122 29.1352 5.03255C29.0748 4.88387 29.0092 4.73866 28.941 4.59651C28.8727 4.45437 28.8012 4.31568 28.7262 4.18016C28.651 4.04466 28.5729 3.91251 28.491 3.78362C28.4094 3.65474 28.3242 3.52912 28.2354 3.40687C28.1473 3.28501 28.0552 3.16595 27.9596 3.04983C27.8644 2.93437 27.7656 2.82193 27.6633 2.71268C27.5612 2.6036 27.4556 2.49776 27.3469 2.39535C27.2379 2.29289 27.1258 2.1937 27.0102 2.09778C26.8939 2.00155 26.775 1.90896 26.6529 1.82013C26.5298 1.73039 26.4039 1.64444 26.2754 1.56237C26.1452 1.47913 26.0127 1.39978 25.8777 1.3244C25.7406 1.24777 25.601 1.17508 25.4598 1.10643C25.225 0.992348 25.0079 0.891148 24.795 0.801384C24.5854 0.712296 24.3719 0.633173 24.155 0.564284C23.9369 0.495565 23.7098 0.436652 23.46 0.385811C23.21 0.334969 22.9375 0.292586 22.6292 0.256544C22.3208 0.220504 21.9764 0.191384 21.5825 0.167165C21.1887 0.142945 20.7457 0.123915 20.2399 0.108537L18.5209 0.0700946L16.3453 0.0444337L13.5593 0.0273256L13.5583 0.027135ZM15.0052 2.6703L19.0229 2.69318L20.5385 2.72239C20.9558 2.73412 21.2744 2.74787 21.461 2.76372C21.7044 2.7842 21.9358 2.80985 22.1575 2.84062C22.37 2.86997 22.5817 2.90647 22.7917 2.95008C22.9935 2.99237 23.186 3.04041 23.3704 3.09462C23.5546 3.14883 23.7306 3.20958 23.8994 3.27674C24.0683 3.34393 24.2298 3.41783 24.3852 3.49876C24.5394 3.57908 24.6892 3.66745 24.834 3.76353C24.9781 3.85916 25.1171 3.9622 25.2521 4.0732C25.3869 4.1842 25.5177 4.30318 25.6454 4.43043C25.7804 4.5647 25.9048 4.70145 26.0194 4.84253C26.1335 4.98276 26.2394 5.12972 26.3358 5.28262C26.4335 5.4377 26.5215 5.59868 26.5994 5.7646C26.6789 5.93376 26.7504 6.11251 26.8146 6.30251C26.879 6.49253 26.936 6.69445 26.9867 6.91022C27.0398 7.13897 27.0842 7.36964 27.12 7.60172C27.1583 7.84776 27.1912 8.11014 27.2192 8.39106C27.2469 8.67197 27.27 8.97155 27.2889 9.29208C27.3042 9.54916 27.3175 9.88843 27.3287 10.2891L27.3569 11.6553L27.3783 15.0018L27.3539 18.3451L27.3246 19.7073L27.2839 20.6981C27.256 21.1621 27.2264 21.5521 27.191 21.8915C27.1733 22.0613 27.1539 22.2183 27.1327 22.3656C27.1127 22.5048 27.0889 22.6433 27.0617 22.7813C27.0367 22.9071 27.0077 23.0321 26.9746 23.1563C26.9431 23.2744 26.9075 23.3917 26.8681 23.5077C26.8283 23.6242 26.7852 23.7394 26.7385 23.8531C26.6892 23.9736 26.6371 24.0925 26.5823 24.2104C26.5335 24.3156 26.4823 24.4181 26.4281 24.5177C26.3746 24.6165 26.3175 24.7131 26.2575 24.8079C26.1979 24.9019 26.1354 24.9931 26.07 25.0815C26.005 25.1694 25.9369 25.255 25.8656 25.3381C25.7948 25.4211 25.7208 25.5011 25.6439 25.5786C25.5671 25.6558 25.4873 25.7304 25.4046 25.8025C25.3221 25.8746 25.2362 25.944 25.1475 26.0106C25.0589 26.0773 24.9671 26.1413 24.8723 26.2025C24.7773 26.264 24.6796 26.3227 24.5785 26.379C24.4775 26.435 24.3733 26.4886 24.2662 26.5396C24.1571 26.5915 24.0467 26.64 23.9346 26.6852C23.8189 26.7319 23.7021 26.7752 23.584 26.8154C23.3435 26.8973 23.0902 26.9692 22.8233 27.0311C22.5454 27.0954 22.2648 27.1479 21.9823 27.1886C21.8735 27.2044 21.6239 27.2194 21.2664 27.2331L19.9041 27.2711L16.0415 27.3213L11.9986 27.3275L10.4109 27.3106L9.37993 27.2786L8.61972 27.225C8.38368 27.2052 8.16416 27.1831 7.95849 27.1579C7.75282 27.1329 7.56128 27.105 7.38107 27.0733C7.2103 27.044 7.04057 27.0086 6.87218 26.9677C6.71864 26.9304 6.56666 26.8869 6.41664 26.8373C6.27199 26.7892 6.13368 26.7363 5.99914 26.6781C5.86457 26.62 5.73386 26.5563 5.60441 26.4867C5.47495 26.4171 5.34684 26.3417 5.21728 26.2592C5.11955 26.1971 5.02507 26.1342 4.93416 26.0677C4.84324 26.0011 4.75539 25.9346 4.67082 25.865C4.58624 25.7954 4.50503 25.7238 4.4267 25.65C4.34889 25.5765 4.27376 25.5002 4.20143 25.4215C4.12934 25.3427 4.06043 25.2619 3.9943 25.1781C3.92793 25.094 3.86468 25.0073 3.8047 24.9186C3.7438 24.8283 3.6862 24.7361 3.63199 24.6419C3.5772 24.5467 3.52512 24.4483 3.47562 24.3467C3.42528 24.2433 3.37832 24.1383 3.33482 24.0319C3.29062 23.9233 3.2487 23.8115 3.2093 23.6961C3.13049 23.4648 3.0613 23.2188 3.00114 22.9565C2.94097 22.6942 2.88964 22.4154 2.8462 22.1183C2.80276 21.8215 2.76778 21.5065 2.73991 21.1719C2.71934 20.9254 2.70301 20.5415 2.69051 20.0571L2.66436 18.3343L2.67397 13.9427L2.74961 9.74618L2.80728 8.26766L2.83995 7.77893C2.8513 7.64843 2.86303 7.55174 2.87503 7.49368C2.91464 7.30272 2.95451 7.12501 2.99574 6.95866C3.03426 6.8017 3.07712 6.64587 3.12424 6.49128C3.16903 6.34539 3.21622 6.20872 3.26668 6.07926C3.31532 5.95385 3.36955 5.83068 3.4292 5.71012C3.48743 5.59287 3.55001 5.4806 3.61795 5.37133C3.68591 5.26205 3.75924 5.15605 3.8392 5.05062C3.91916 4.94518 4.00526 4.8411 4.09897 4.73558C4.19268 4.63005 4.29389 4.52347 4.40364 4.41362C4.53155 4.28497 4.66474 4.16168 4.80287 4.04408C4.9333 3.93312 5.0693 3.82889 5.21037 3.73183C5.34905 3.6357 5.4913 3.55018 5.63941 3.47155C5.78751 3.39295 5.94147 3.32191 6.10341 3.25801C6.26534 3.1941 6.43547 3.13691 6.61566 3.08501C6.80499 3.03191 6.99641 2.9866 7.18943 2.9492C7.39241 2.90943 7.60799 2.87472 7.83816 2.84445C8.06834 2.81418 8.31322 2.78803 8.57503 2.76535C8.75764 2.7496 9.07228 2.73555 9.48662 2.72374L10.9946 2.69395L15.0059 2.66943L15.0052 2.6703Z" fill="white"/>
</svg>
