
<svg width="16" height="16" viewBox="0 0 16 16" fill="none" xmlns="http://www.w3.org/2000/svg">
<path d="M8.00723 3.92364C7.86653 3.92364 7.72736 3.93082 7.59025 3.94486C7.45314 3.95891 7.31792 3.97972 7.18501 4.00703C7.05209 4.03435 6.92154 4.06818 6.79361 4.10812L6.41808 4.246L6.06056 4.41863L5.72318 4.62392L5.40795 4.85971L5.11706 5.12394L4.85257 5.41457L4.61653 5.72945L4.41098 6.06652L4.23825 6.42363C4.18633 6.54577 4.14014 6.67101 4.10016 6.79884C4.06018 6.92667 4.02635 7.05717 3.99897 7.18994C3.97161 7.3227 3.95079 7.45775 3.93669 7.59477C3.9226 7.73178 3.91553 7.8708 3.91553 8.01134C3.91553 8.15188 3.9227 8.2909 3.93669 8.42791C3.95062 8.56384 3.97139 8.69897 3.99897 8.8328C4.02635 8.96606 4.06018 9.09605 4.10016 9.2239C4.14014 9.35173 4.18627 9.47691 4.23825 9.5991L4.41098 9.95622L4.61653 10.2932L4.85257 10.6082L5.11706 10.8988L5.40795 11.1631L5.72318 11.3988L6.06056 11.6041L6.41808 11.7767L6.79361 11.9146L7.18501 12.0157C7.31895 12.0433 7.45421 12.0641 7.59025 12.078C7.72879 12.0921 7.86797 12.0992 8.00723 12.0991C8.14793 12.0991 8.28709 12.092 8.42416 12.078C8.5602 12.0641 8.69546 12.0433 8.82941 12.0157L9.22086 11.9146L9.59637 11.7767L9.95385 11.6041L10.2913 11.3988L10.6065 11.1631L10.8974 10.8988L11.162 10.6082L11.398 10.2932L11.6035 9.95622L11.7763 9.5991L11.9143 9.2239C11.9543 9.09605 11.9882 8.96555 12.0155 8.8328L12.0778 8.42786C12.0919 8.29085 12.099 8.15184 12.099 8.01128C12.099 7.87074 12.0919 7.73173 12.0778 7.59472C12.0639 7.45881 12.0431 7.3237 12.0155 7.18988C11.9882 7.05662 11.9543 6.92667 11.9143 6.79878L11.7763 6.42358L11.6035 6.06646L11.398 5.7294L11.162 5.41452L10.8974 5.12388L10.6065 4.85965L10.2913 4.62387L9.95385 4.41858L9.59637 4.24595L9.22086 4.10806L8.82941 4.00698L8.42416 3.94481C8.28564 3.93066 8.14647 3.92363 8.00723 3.92364ZM8.00723 5.33456C8.10026 5.33456 8.19206 5.33917 8.28248 5.3483L8.54903 5.38864L8.80649 5.45424L9.05304 5.5438L9.28744 5.65605L9.50785 5.78957L9.71391 5.9432L9.90387 6.11552L10.0763 6.30527L10.2301 6.51113L10.3638 6.73184L10.4761 6.9661C10.5098 7.04626 10.5397 7.12843 10.5658 7.21244C10.5918 7.29645 10.6137 7.38231 10.6314 7.46975C10.649 7.5572 10.6621 7.64618 10.6717 7.73655L10.6854 8.0116C10.6854 8.10453 10.6808 8.19627 10.6717 8.2867C10.6626 8.37712 10.6492 8.4661 10.6314 8.5535C10.6136 8.64088 10.5916 8.72674 10.5658 8.81081L10.4761 9.05715L10.3638 9.2914L10.2301 9.51206L10.0763 9.71796L9.90387 9.90772L9.71391 10.0801L9.50785 10.2337L9.28744 10.3672L9.05304 10.4795L8.80649 10.569L8.54903 10.6346L8.28248 10.6749C8.191 10.6841 8.09912 10.6887 8.00718 10.6886C7.91522 10.6887 7.82332 10.6841 7.73183 10.6749L7.46528 10.6346C7.37778 10.6169 7.29187 10.5949 7.20776 10.569L6.96122 10.4795L6.72682 10.3672L6.50641 10.2337L6.30035 10.0801L6.11038 9.90772L5.93791 9.71796L5.78413 9.51206L5.65045 9.2914L5.53819 9.05715L5.44849 8.81081L5.38288 8.5535L5.34255 8.2867C5.33337 8.19528 5.32878 8.10347 5.32881 8.0116C5.32878 7.91974 5.33337 7.82794 5.34255 7.73655C5.35162 7.64618 5.36509 7.55714 5.38288 7.46975C5.40049 7.38296 5.42241 7.2971 5.44855 7.21248L5.53825 6.96614L5.65051 6.7319L5.78418 6.51118L5.93795 6.30533L6.11044 6.11557L6.30039 5.94324L6.50645 5.78963L6.72686 5.6561L6.96126 5.54384C7.04194 5.50996 7.12425 5.48007 7.20786 5.4543L7.46538 5.38868C7.55288 5.37095 7.64197 5.35742 7.73193 5.34835C7.82343 5.33918 7.91527 5.33455 8.00723 5.33456Z" fill="url(#paint0_radial_225_286)"/>
<path d="M12.2649 2.76074C12.2324 2.76074 12.2 2.76239 12.1676 2.76566C12.1353 2.76893 12.1032 2.77382 12.0713 2.78032C12.0395 2.78682 12.008 2.79491 11.977 2.80456C11.9459 2.81423 11.9154 2.82545 11.8854 2.83819C11.8555 2.85094 11.8263 2.8652 11.7978 2.88089C11.7692 2.89655 11.7415 2.91364 11.7147 2.9321C11.6879 2.95056 11.662 2.97038 11.6372 2.99145C11.6123 3.01251 11.5885 3.0348 11.5659 3.05824C11.5433 3.0817 11.5219 3.10629 11.5016 3.1319C11.4814 3.15752 11.4625 3.18413 11.445 3.21165C11.4274 3.23915 11.4113 3.26752 11.3965 3.29664C11.3819 3.32579 11.3685 3.35565 11.3567 3.38614C11.345 3.41661 11.3347 3.44766 11.326 3.47916C11.3173 3.51068 11.3102 3.5426 11.3047 3.57482C11.2992 3.60703 11.2953 3.6395 11.293 3.67211C11.2913 3.6952 11.2905 3.71835 11.2905 3.74151C11.2905 3.77422 11.2921 3.80691 11.2954 3.83946C11.2986 3.872 11.3035 3.90434 11.31 3.93639C11.3164 3.96843 11.3244 4.00013 11.334 4.03136C11.3436 4.06261 11.3547 4.09335 11.3674 4.12348C11.3801 4.15361 11.3942 4.18309 11.4099 4.2118C11.4254 4.2405 11.4424 4.2684 11.4607 4.2954C11.4791 4.32238 11.4988 4.34841 11.5196 4.37341C11.5406 4.39843 11.5628 4.42239 11.5861 4.44518C11.6094 4.46795 11.6337 4.48954 11.6593 4.50986C11.6847 4.5302 11.7112 4.54923 11.7385 4.56691C11.7659 4.58459 11.7941 4.60088 11.823 4.61571C11.852 4.63055 11.8816 4.64393 11.9119 4.65579C11.9422 4.66764 11.973 4.67795 12.0043 4.6867C12.0356 4.69543 12.0673 4.70259 12.0993 4.70812C12.1313 4.71369 12.1636 4.71764 12.196 4.71996C12.219 4.72161 12.242 4.72242 12.265 4.72243C12.2974 4.72243 12.33 4.72081 12.3623 4.71755C12.3945 4.71429 12.4268 4.7094 12.4585 4.7029C12.4904 4.69641 12.5219 4.68831 12.553 4.67865C12.584 4.66899 12.6145 4.65776 12.6444 4.64503C12.6743 4.63229 12.7036 4.61805 12.7321 4.60238C12.7606 4.5867 12.7883 4.56959 12.8152 4.55112C12.842 4.53266 12.8679 4.51288 12.8928 4.49182C12.9175 4.47074 12.9413 4.44844 12.964 4.42498C12.9866 4.40152 13.0081 4.37693 13.0282 4.35132C13.0484 4.3257 13.0673 4.29909 13.0849 4.27156C13.1024 4.24405 13.1186 4.21566 13.1333 4.18653C13.1481 4.15738 13.1614 4.12751 13.1732 4.09703C13.185 4.06655 13.1952 4.03551 13.2039 4.004C13.2125 3.9725 13.2196 3.94058 13.2252 3.90835C13.2308 3.87614 13.2346 3.84366 13.2369 3.81106C13.2385 3.78796 13.2394 3.76482 13.2394 3.74166C13.2394 3.70896 13.2378 3.67629 13.2345 3.64375C13.2313 3.61122 13.2264 3.57888 13.22 3.54683C13.2135 3.51479 13.2054 3.48309 13.1959 3.45185C13.1862 3.42061 13.1751 3.38986 13.1624 3.35974C13.1498 3.32961 13.1356 3.30013 13.1201 3.27142C13.1045 3.24272 13.0875 3.21482 13.0692 3.18782C13.0508 3.16082 13.0311 3.13478 13.0102 3.10975C12.9892 3.08474 12.9671 3.06079 12.9439 3.038C12.9205 3.01522 12.8961 2.99363 12.8706 2.97331C12.8452 2.95299 12.8188 2.93396 12.7914 2.91631C12.7641 2.89863 12.7359 2.88234 12.7069 2.86751C12.6779 2.85266 12.6482 2.83929 12.618 2.82743C12.5877 2.81558 12.5569 2.80526 12.5255 2.79652C12.4943 2.78776 12.4625 2.7806 12.4305 2.77504C12.3985 2.7695 12.3663 2.76555 12.3339 2.76325C12.3109 2.76161 12.2879 2.76074 12.2649 2.76074Z" fill="url(#paint1_radial_225_286)"/>
<path d="M7.23099 0.0145534C6.78596 0.0138357 6.38882 0.0156808 6.03206 0.020704L5.0756 0.0463329C4.79224 0.0586347 4.5419 0.0746773 4.31719 0.0954367C4.20483 0.105791 4.09883 0.117375 3.99836 0.130138C3.90275 0.142188 3.80742 0.156219 3.7124 0.172221C3.62192 0.187599 3.53606 0.204206 3.45374 0.222248C3.37143 0.240291 3.2928 0.259769 3.21693 0.280683C3.14278 0.301133 3.06919 0.323627 2.99628 0.348138C2.92482 0.372229 2.85511 0.397756 2.78626 0.425025C2.64859 0.479564 2.5143 0.540764 2.376 0.609347C2.26959 0.662143 2.17128 0.715604 2.07789 0.772193C1.9845 0.828781 1.89602 0.888548 1.8094 0.953646C1.72019 1.02101 1.6342 1.09254 1.55173 1.16801C1.46551 1.24653 1.37745 1.3329 1.28595 1.42942C1.17099 1.55003 1.07108 1.66249 0.982405 1.77284C0.938068 1.828 0.896549 1.88254 0.85744 1.93739C0.818762 1.99143 0.781788 2.04669 0.746569 2.10304C0.711714 2.15892 0.678704 2.21582 0.647129 2.27435C0.615062 2.3339 0.584755 2.39438 0.556249 2.4557C0.497918 2.58098 0.443482 2.71589 0.389149 2.86649C0.348841 2.97781 0.312747 3.09063 0.280943 3.20468C0.248498 3.32124 0.21964 3.44319 0.193908 3.57507C0.168177 3.70695 0.145725 3.84879 0.125991 4.00563C0.104726 4.17757 0.0877371 4.35 0.0750413 4.52278C0.0606891 4.71273 0.0487974 4.92177 0.0390584 5.15442L0.0159925 5.92801L0.00358802 6.871L0 8.01081L0.0105078 9.66833L0.0433128 10.9241L0.0685828 11.4146L0.100158 11.8212C0.110279 11.9308 0.122943 12.04 0.13814 12.149C0.151979 12.2458 0.166844 12.3304 0.182837 12.4038C0.215287 12.5528 0.253658 12.7004 0.297859 12.8464C0.340181 12.9862 0.38858 13.124 0.442918 13.2595C0.496329 13.3923 0.554762 13.5203 0.618322 13.6435C0.681882 13.7668 0.750567 13.8852 0.824379 13.999C0.89819 14.1126 0.977127 14.2218 1.06139 14.3262C1.14556 14.4306 1.2351 14.5305 1.32963 14.6258C1.4243 14.7211 1.52415 14.8118 1.62939 14.898C1.73585 14.9852 1.84654 15.0672 1.96102 15.1435C2.06728 15.2145 2.17241 15.2796 2.27831 15.3393C2.3842 15.3991 2.49102 15.4532 2.60082 15.5025C2.71061 15.5518 2.82318 15.5961 2.94076 15.636C3.05834 15.6759 3.18085 15.7113 3.31033 15.7428C3.43981 15.7743 3.57686 15.8019 3.72193 15.826C3.86699 15.8501 4.02204 15.8708 4.18771 15.8885C4.35338 15.9063 4.53011 15.921 4.72002 15.9333C4.90993 15.9456 5.11291 15.9554 5.33101 15.9633C5.66793 15.9755 6.17794 15.9826 6.76608 15.9854L8.67004 15.9815L10.473 15.9563L11.1585 15.937L11.6051 15.9141C11.701 15.9062 11.7948 15.897 11.8853 15.8862C11.9759 15.8754 12.0651 15.8631 12.1521 15.849C12.239 15.835 12.324 15.8193 12.4074 15.8019C12.49 15.7846 12.5721 15.7654 12.6536 15.7443C12.7344 15.7238 12.8141 15.7004 12.893 15.6756C12.9718 15.651 13.0499 15.6242 13.1274 15.5954C13.2054 15.5665 13.2826 15.5358 13.3592 15.5032C13.4362 15.4703 13.5131 15.4353 13.5903 15.3981C13.7089 15.341 13.8043 15.2933 13.8881 15.2469C13.967 15.2036 14.0429 15.1553 14.1154 15.1021C14.187 15.0494 14.2581 14.9894 14.3401 14.9139C14.4221 14.8383 14.5151 14.7473 14.6301 14.6322C14.7313 14.5311 14.8165 14.4432 14.8901 14.3633C14.9636 14.2834 15.0256 14.2115 15.08 14.1422C15.1318 14.0764 15.18 14.008 15.2245 13.9371C15.268 13.8679 15.308 13.796 15.3486 13.7163C15.41 13.5964 15.4645 13.4853 15.5133 13.3781C15.5608 13.2749 15.6041 13.1696 15.6432 13.063C15.6818 12.9571 15.7152 12.8494 15.7433 12.7403C15.7722 12.6281 15.7971 12.5095 15.8186 12.3795C15.8401 12.2495 15.8583 12.1081 15.8741 11.9501C15.8899 11.7922 15.9033 11.6175 15.9151 11.4214L15.9464 10.7629L15.9732 9.94394L15.9924 9.03155L15.9998 8.07755L15.9826 6.20382L15.9598 5.36458L15.9285 4.644L15.8895 4.08221C15.8754 3.92588 15.8601 3.80275 15.844 3.71951C15.826 3.62753 15.806 3.53599 15.7839 3.44492C15.7623 3.35632 15.7386 3.26825 15.7129 3.1808C15.6878 3.09559 15.6604 3.01103 15.631 2.92722C15.6019 2.84444 15.571 2.7634 15.5386 2.68411C15.5064 2.60481 15.4714 2.52737 15.4351 2.45155C15.3986 2.37574 15.3605 2.30178 15.3205 2.2295C15.2804 2.15723 15.2388 2.08675 15.1951 2.01801C15.1515 1.94928 15.1061 1.88228 15.0588 1.81708C15.0118 1.75209 14.9626 1.68859 14.9116 1.62665C14.8609 1.56508 14.8082 1.50511 14.7536 1.44684C14.6992 1.38867 14.6429 1.33222 14.5849 1.2776C14.5268 1.22295 14.467 1.17005 14.4053 1.1189C14.3433 1.06758 14.2799 1.01819 14.2148 0.970817C14.1491 0.922958 14.082 0.877114 14.0134 0.833345C13.944 0.788953 13.8733 0.746629 13.8013 0.706429C13.7282 0.665557 13.6538 0.626789 13.5784 0.590177C13.4532 0.529334 13.3374 0.47536 13.2239 0.427486C13.1121 0.379973 12.9982 0.337774 12.8825 0.301033C12.7662 0.264383 12.6451 0.232963 12.5119 0.205847C12.3785 0.178731 12.2332 0.156127 12.0688 0.136905C11.9043 0.117684 11.7206 0.102153 11.5105 0.0892359C11.3005 0.0763189 11.0642 0.0661692 10.7945 0.0579679L9.87768 0.0374652L8.71735 0.0237794L7.2315 0.014655L7.23099 0.0145534ZM8.00266 1.42424L10.1454 1.43644L10.9537 1.45202C11.1763 1.45828 11.3462 1.46561 11.4458 1.47407C11.5755 1.48499 11.699 1.49867 11.8172 1.51508C11.9305 1.53073 12.0434 1.5502 12.1554 1.57345C12.2631 1.59601 12.3658 1.62163 12.4641 1.65054C12.5623 1.67945 12.6562 1.71185 12.7462 1.74768C12.8363 1.78351 12.9224 1.82292 13.0053 1.86609C13.0875 1.90892 13.1674 1.95605 13.2446 2.0073C13.3215 2.0583 13.3956 2.11325 13.4676 2.17245C13.5395 2.23165 13.6093 2.29511 13.6774 2.36298C13.7494 2.43459 13.8158 2.50752 13.8769 2.58277C13.9378 2.65755 13.9942 2.73593 14.0456 2.81748C14.0978 2.90019 14.1446 2.98604 14.1862 3.07453C14.2286 3.16475 14.2668 3.26009 14.301 3.36142C14.3353 3.46277 14.3658 3.57045 14.3928 3.68553C14.4211 3.80753 14.4448 3.93055 14.4639 4.05433C14.4843 4.18555 14.5019 4.32549 14.5168 4.47531C14.5315 4.62513 14.5439 4.78491 14.554 4.95585C14.5621 5.09297 14.5692 5.27391 14.5752 5.4876L14.5902 6.21623L14.6016 8.00102L14.5886 9.78412L14.573 10.5107L14.5513 11.0391C14.5364 11.2865 14.5206 11.4945 14.5018 11.6755C14.4923 11.7661 14.482 11.8499 14.4706 11.9284C14.46 12.0026 14.4473 12.0765 14.4328 12.1501C14.4194 12.2172 14.404 12.2839 14.3863 12.3501C14.3695 12.4131 14.3505 12.4756 14.3295 12.5375C14.3083 12.5996 14.2853 12.6611 14.2604 12.7218C14.2341 12.786 14.2063 12.8494 14.1771 12.9123C14.1511 12.9684 14.1238 13.0231 14.0949 13.0762C14.0663 13.1289 14.0359 13.1804 14.0039 13.231C13.9721 13.2811 13.9388 13.3298 13.9039 13.3769C13.8692 13.4238 13.8329 13.4694 13.7949 13.5138C13.7571 13.558 13.7176 13.6006 13.6766 13.642C13.6356 13.6832 13.5931 13.723 13.549 13.7614C13.505 13.7999 13.4592 13.8369 13.4119 13.8724C13.3646 13.908 13.3156 13.9421 13.2651 13.9748C13.2144 14.0075 13.1623 14.0389 13.1084 14.0689C13.0545 14.0988 12.999 14.1273 12.9419 14.1545C12.8836 14.1822 12.8248 14.2081 12.765 14.2322C12.7033 14.2571 12.641 14.2802 12.578 14.3016C12.4498 14.3453 12.3146 14.3836 12.1723 14.4166C12.0241 14.451 11.8744 14.479 11.7238 14.5006C11.6658 14.5091 11.5326 14.5171 11.342 14.5244L10.6154 14.5446L8.55533 14.5714L6.39912 14.5748L5.55234 14.5658L5.0025 14.5486L4.59705 14.5201C4.47116 14.5095 4.35409 14.4978 4.2444 14.4843C4.13471 14.471 4.03255 14.4561 3.93644 14.4392C3.84536 14.4235 3.75484 14.4046 3.66503 14.3829C3.58314 14.363 3.50209 14.3398 3.42208 14.3133C3.34493 14.2876 3.27116 14.2594 3.19941 14.2284C3.12764 14.1974 3.05793 14.1634 2.98889 14.1263C2.91984 14.0892 2.85152 14.049 2.78242 14.005C2.7303 13.9719 2.67991 13.9383 2.63142 13.9029C2.58293 13.8673 2.53608 13.8319 2.49098 13.7948C2.44586 13.7576 2.40255 13.7194 2.36078 13.6801C2.31928 13.6409 2.27921 13.6002 2.24063 13.5582C2.20219 13.5162 2.16543 13.4731 2.13016 13.4284C2.09476 13.3835 2.06103 13.3373 2.02904 13.29C1.99656 13.2419 1.96584 13.1926 1.93693 13.1424C1.90771 13.0916 1.87993 13.0392 1.85353 12.985C1.82669 12.9299 1.80164 12.8739 1.77844 12.8171C1.75486 12.7592 1.73251 12.6995 1.7115 12.638C1.66946 12.5146 1.63256 12.3834 1.60048 12.2435C1.56839 12.1036 1.54101 11.955 1.51784 11.7965C1.49468 11.6382 1.47602 11.4702 1.46115 11.2918C1.45019 11.1603 1.44148 10.9555 1.43481 10.6972L1.42086 9.77839L1.42599 7.43617L1.46633 5.19804L1.49709 4.4095L1.51451 4.14884C1.52056 4.07924 1.52682 4.02768 1.53322 3.99671C1.55434 3.89487 1.57561 3.80009 1.5976 3.71137C1.61814 3.62765 1.641 3.54454 1.66613 3.4621C1.69002 3.38429 1.71519 3.3114 1.7421 3.24235C1.76804 3.17547 1.79696 3.10978 1.82878 3.04548C1.85983 2.98294 1.89321 2.92307 1.92944 2.86479C1.96569 2.80651 2.0048 2.74998 2.04744 2.69374C2.09009 2.63751 2.13601 2.582 2.18599 2.52572C2.23596 2.46944 2.28994 2.4126 2.34848 2.35401C2.4167 2.2854 2.48773 2.21964 2.5614 2.15692C2.63096 2.09774 2.7035 2.04215 2.77873 1.99039C2.8527 1.93912 2.92856 1.89351 3.00755 1.85158C3.08654 1.80965 3.16865 1.77177 3.25502 1.73769C3.34139 1.7036 3.43212 1.6731 3.52822 1.64542C3.6292 1.6171 3.73129 1.59293 3.83423 1.57299C3.94249 1.55178 4.05746 1.53327 4.18022 1.51712C4.30299 1.50098 4.43359 1.48703 4.57322 1.47493C4.67061 1.46653 4.83842 1.45904 5.0594 1.45274L5.86363 1.43685L8.00303 1.42378L8.00266 1.42424Z" fill="url(#paint2_radial_225_286)"/>
<defs>
<radialGradient id="paint0_radial_225_286" cx="0" cy="0" r="1" gradientUnits="userSpaceOnUse" gradientTransform="translate(2.54935 17.1495) rotate(-9.53101) scale(33.8153 20.5257)">
<stop stop-color="#FED576"/>
<stop offset="0.263" stop-color="#F47133"/>
<stop offset="0.609" stop-color="#BC3081"/>
<stop offset="1" stop-color="#4C63D2"/>
</radialGradient>
<radialGradient id="paint1_radial_225_286" cx="0" cy="0" r="1" gradientUnits="userSpaceOnUse" gradientTransform="translate(2.54937 17.1494) rotate(-9.53101) scale(33.8153 20.5257)">
<stop stop-color="#FED576"/>
<stop offset="0.263" stop-color="#F47133"/>
<stop offset="0.609" stop-color="#BC3081"/>
<stop offset="1" stop-color="#4C63D2"/>
</radialGradient>
<radialGradient id="paint2_radial_225_286" cx="0" cy="0" r="1" gradientUnits="userSpaceOnUse" gradientTransform="translate(2.54904 17.1496) rotate(-9.53101) scale(33.8153 20.5257)">
<stop stop-color="#FFF9EC"/>
<stop offset="0.263" stop-color="#F47133"/>
<stop offset="0.609" stop-color="#BC3081"/>
<stop offset="1" stop-color="#4C63D2"/>
</radialGradient>
</defs>
</svg>
