<svg width="30" height="26" viewBox="0 0 30 26" fill="none" xmlns="http://www.w3.org/2000/svg">
<mask id="mask0_197_362" style="mask-type:luminance" maskUnits="userSpaceOnUse" x="0" y="0" width="30" height="26">
<path d="M29.9831 0H0V26H29.9831V0Z" fill="white"/>
</mask>
<g mask="url(#mask0_197_362)">
<path d="M21.6014 21.9716H17.8449V15.988C17.8449 14.5611 17.8198 12.7244 15.8911 12.7244C13.9346 12.7244 13.6353 14.279 13.6353 15.8841V21.9712H9.87879V9.66648H13.485V11.348H13.5355C13.8964 10.7204 14.4179 10.2041 15.0445 9.85408C15.6711 9.50405 16.3793 9.33345 17.0936 9.36042C20.9009 9.36042 21.603 11.9076 21.603 15.2214L21.6014 21.9716ZM5.64023 7.98452C5.20908 7.98461 4.78758 7.85464 4.42905 7.61105C4.07051 7.36749 3.79106 7.02125 3.62599 6.61612C3.46094 6.21099 3.41768 5.76518 3.50171 5.33506C3.58575 4.90494 3.7933 4.50981 4.09813 4.19967C4.40294 3.88952 4.79132 3.67828 5.21418 3.59265C5.63704 3.50701 6.07534 3.55085 6.4737 3.71858C6.87206 3.88634 7.21257 4.17046 7.45216 4.53506C7.69177 4.89963 7.81971 5.32831 7.81978 5.76684C7.81983 6.05802 7.76349 6.34635 7.65398 6.61538C7.54447 6.88443 7.38396 7.12888 7.18158 7.3348C6.97919 7.54075 6.73889 7.70411 6.47441 7.81559C6.20995 7.92706 5.92651 7.98446 5.64023 7.98452ZM7.51846 21.9716H3.75808V9.66648H7.51846V21.9716ZM23.4742 0.00175686H1.87044C1.3801 -0.00387145 0.907598 0.188737 0.556804 0.537258C0.206008 0.885779 0.00561817 1.3617 -0.000366211 1.86043V23.9254C0.00541335 24.4244 0.205685 24.9005 0.556468 25.2496C0.907252 25.5984 1.37986 25.7914 1.87044 25.786H23.4742C23.9657 25.7923 24.4397 25.5998 24.7919 25.251C25.1439 24.9022 25.3456 24.4253 25.3525 23.9254V1.85884C25.3454 1.35912 25.1436 0.882655 24.7915 0.534143C24.4394 0.185631 23.9656 -0.0064266 23.4742 0.000164196" fill="#F2F8FF"/>
</g>
</svg>
